<?xml version="1.0" standalone="no"?>
<!DOCTYPE svg PUBLIC "-//W3C//DTD SVG 20010904//EN"
 "http://www.w3.org/TR/2001/REC-SVG-20010904/DTD/svg10.dtd">
<svg version="1.0" xmlns="http://www.w3.org/2000/svg"
 width="24.000000pt" height="24.000000pt" viewBox="0 0 24.000000 24.000000"
 preserveAspectRatio="xMidYMid meet">

<g transform="translate(0.000000,24.000000) scale(0.100000,-0.100000)"
fill="#000000" stroke="none">
<path d="M0 120 l0 -120 120 0 120 0 0 120 0 120 -120 0 -120 0 0 -120z m175
63 c32 -15 35 -20 35 -59 0 -40 -3 -44 -45 -67 l-45 -26 -45 26 c-42 23 -45
27 -45 67 0 38 3 44 33 59 42 21 68 21 112 0z"/>
<path d="M77 177 c-50 -20 -50 -77 1 -108 l32 -21 0 35 c0 29 -5 37 -30 47
-17 7 -29 15 -26 17 2 2 18 -3 35 -12 28 -14 34 -14 62 0 17 9 33 14 35 12 3
-2 -9 -10 -26 -17 -25 -10 -30 -18 -30 -46 l0 -35 31 16 c26 14 29 18 17 32
-11 15 -11 16 5 10 13 -5 17 -1 17 16 0 30 -11 44 -43 56 -33 13 -43 13 -80
-2z"/>
</g>
</svg>
