<?xml version="1.0" standalone="no"?>
<!DOCTYPE svg PUBLIC "-//W3C//DTD SVG 20010904//EN"
 "http://www.w3.org/TR/2001/REC-SVG-20010904/DTD/svg10.dtd">
<svg version="1.0" xmlns="http://www.w3.org/2000/svg"
 width="24.000000pt" height="24.000000pt" viewBox="0 0 24.000000 24.000000"
 preserveAspectRatio="xMidYMid meet">

<g transform="translate(0.000000,24.000000) scale(0.100000,-0.100000)"
fill="#000000" stroke="none">
<path d="M0 119 l0 -119 120 0 120 0 0 120 0 119 -120 0 -120 -1 0 -119z m70
90 l-25 -21 30 -24 c37 -29 45 -30 79 -3 l27 21 -31 20 c-18 10 -30 21 -27 24
3 3 21 -5 40 -17 31 -21 35 -29 40 -78 7 -61 2 -70 -49 -102 l-34 -21 -44 28
c-41 26 -44 31 -49 82 -7 65 -4 73 31 95 37 23 42 21 12 -4z"/>
<path d="M39 123 c3 -46 12 -59 54 -84 15 -9 17 -5 17 38 0 43 -4 50 -33 71
-18 12 -35 22 -38 22 -2 0 -2 -21 0 -47z"/>
<path d="M165 154 c-11 -9 -26 -19 -33 -23 -10 -6 -12 -20 -7 -54 7 -42 9 -45
26 -34 11 7 17 17 15 24 -3 7 2 16 10 21 11 6 14 20 12 45 -3 34 -4 35 -23 21z"/>
</g>
</svg>
