<?xml version="1.0" standalone="no"?>
<!DOCTYPE svg PUBLIC "-//W3C//DTD SVG 20010904//EN"
 "http://www.w3.org/TR/2001/REC-SVG-20010904/DTD/svg10.dtd">
<svg version="1.0" xmlns="http://www.w3.org/2000/svg"
 width="24.000000pt" height="24.000000pt" viewBox="0 0 24.000000 24.000000"
 preserveAspectRatio="xMidYMid meet">

<g transform="translate(0.000000,24.000000) scale(0.100000,-0.100000)"
fill="#000000" stroke="none">
<path d="M71 201 l-35 -19 42 -21 42 -21 42 21 42 21 -35 19 c-18 10 -41 18
-49 18 -8 0 -31 -8 -49 -18z"/>
<path d="M30 118 c0 -52 5 -60 48 -82 l32 -17 0 54 c0 51 -1 54 -35 70 -20 9
-38 17 -40 17 -3 0 -5 -19 -5 -42z"/>
<path d="M163 143 c-31 -16 -33 -20 -33 -70 l0 -54 33 17 c42 22 47 30 47 82
0 47 -1 47 -47 25z"/>
</g>
</svg>
